<svg xmlns="http://www.w3.org/2000/svg" viewBox="0 0 160 160" width="160" height="160">
  <defs>
    <linearGradient id="mandiGrad" x1="0" y1="0" x2="0" y2="1">
      <stop offset="0%" stop-color="#1C5A35" stop-opacity="0.6"/>
      <stop offset="100%" stop-color="#2E7D32" stop-opacity="0.25"/>
    </linearGradient>
  </defs>
  <!-- Mandi Canopy / APMC Market Shed Roof -->
  <polygon points="12,58 80,26 148,58" fill="url(#mandiGrad)" stroke="#1C5A35" stroke-width="2.5"/>
  <path d="M12 58 Q 28 67 45 58 Q 62 67 80 58 Q 97 67 114 58 Q 131 67 148 58" fill="#1C5A35" opacity="0.45"/>
  <!-- Structural Pillars -->
  <line x1="28" y1="64" x2="28" y2="135" stroke="#1C5A35" stroke-width="3" opacity="0.5"/>
  <line x1="132" y1="64" x2="132" y2="135" stroke="#1C5A35" stroke-width="3" opacity="0.5"/>
  <line x1="80" y1="58" x2="80" y2="135" stroke="#1C5A35" stroke-width="2.5" opacity="0.35"/>
  <!-- Mandi Auction Platform Base -->
  <rect x="18" y="132" width="124" height="8" rx="3" fill="#1C5A35" opacity="0.55"/>

  <!-- Mandi Weighing Scale / Tarazu -->
  <line x1="54" y1="76" x2="106" y2="76" stroke="#1C5A35" stroke-width="2.5" opacity="0.75"/>
  <line x1="80" y1="68" x2="80" y2="92" stroke="#1C5A35" stroke-width="2.5" opacity="0.75"/>
  <circle cx="80" cy="68" r="3.5" fill="#1C5A35" opacity="0.8"/>
  <!-- Left Balance Pan -->
  <line x1="54" y1="76" x2="46" y2="96" stroke="#1C5A35" stroke-width="1.5" opacity="0.6"/>
  <line x1="54" y1="76" x2="62" y2="96" stroke="#1C5A35" stroke-width="1.5" opacity="0.6"/>
  <path d="M43 96 Q 54 104 65 96 Z" fill="#1C5A35" opacity="0.6"/>
  <!-- Right Balance Pan -->
  <line x1="106" y1="76" x2="98" y2="96" stroke="#1C5A35" stroke-width="1.5" opacity="0.6"/>
  <line x1="106" y1="76" x2="114" y2="96" stroke="#1C5A35" stroke-width="1.5" opacity="0.6"/>
  <path d="M95 96 Q 106 104 117 96 Z" fill="#1C5A35" opacity="0.6"/>

  <!-- Grain Jute Sacks at Mandi Base -->
  <path d="M30 115 C 30 106 48 106 48 115 L 48 132 L 30 132 Z" fill="#1C5A35" opacity="0.4"/>
  <path d="M112 115 C 112 106 130 106 130 115 L 130 132 L 112 132 Z" fill="#1C5A35" opacity="0.4"/>
</svg>
